<svg width="458" height="210" viewBox="0 0 458 210" xmlns="http://www.w3.org/2000/svg" xmlns:xlink="http://www.w3.org/1999/xlink"><title>img_2_Online_privacy</title><defs><linearGradient x1="50%" y1="0%" x2="50%" y2="100%" id="a"><stop stop-color="#F0F0F0" offset="0%"/><stop stop-color="#F8F8F8" offset="100%"/></linearGradient><path id="b" d="M.282 66.585h33.475V.762H.282v65.823z"/><path id="d" d="M.038 50.928h23.968V.566H.038v50.361z"/><path id="f" d="M.064 76.962h123.369V.407H.064z"/><path id="h" d="M50.425.538H.329v42.098h50.096V.538z"/></defs><g fill="none" fill-rule="evenodd"><path fill="#FFF" d="M0 0h458v210H0z"/><path d="M313.285 4.515c-31.106 0-56.538 24.756-57.671 55.614H250l5.574 7.193 5.574 7.193 5.575-7.193 5.574-7.193h-5.518c1.124-24.7 21.554-44.449 46.506-44.449 25.672 0 46.558 20.904 46.558 46.596H371c0-31.85-25.892-57.76-57.715-57.76" fill="#F8C44F"/><path fill="#FFF" d="M142.125 65.942l-5.237 6.814h5.506v42.452h9.934V72.756h5.507l-5.236-6.814-5.236-6.815zm35.649 2.107l5.236-6.815h-5.507V18.782h-9.933v42.452h-5.507l5.236 6.815 5.237 6.814z"/><path d="M197.102 147.36c.111-.947.182-1.9.182-2.875 0-13.412-10.882-24.287-24.315-24.287-2.275 0-4.479.335-6.573.922-2.382-17.366-17.285-30.757-35.336-30.757-19.71 0-35.685 15.96-35.685 35.632 0 .081.004.158.004.237-10.85 1.238-19.283 10.43-19.283 21.6 0 12.012 9.748 21.75 21.774 21.75h97.937c.003-.015.01-.031.015-.05.314.027.624.05.94.05 6.15 0 11.132-4.978 11.132-11.122 0-6.024-4.801-10.922-10.792-11.1" fill="url(#a)" transform="translate(136.508 17.99)"/><path d="M305.538 185.615c-16.192.001-31.76-5.514-44.477-15.875-14.605-11.903-23.696-28.77-25.598-47.501l1.748-.178c1.854 18.264 10.719 34.713 24.96 46.318 14.242 11.605 32.157 16.976 50.442 15.124 18.286-1.853 34.756-10.705 46.375-24.93 11.62-14.225 16.996-32.116 15.142-50.38l1.747-.177c1.902 18.73-3.612 37.078-15.528 51.666-11.915 14.588-28.805 23.667-47.558 25.566a71.73 71.73 0 0 1-7.253.367" fill="#000"/><path stroke="#000" stroke-width="1.756" d="M370.935 112.387l3.671-5.182 5.189 3.667"/><path d="M242.774 182.058c.152-1.075.33-2.146.33-3.268 0-12.603-10.232-22.827-22.859-22.827-2.49 0-4.852.498-7.09 1.233-3.367-22.827-22.999-40.37-46.788-40.37-3.493 0-6.89.407-10.16 1.123-10.611-11.675-25.87-19.057-42.9-19.057-27.217 0-49.993 18.767-56.221 44.028h-.109c-18.939 0-34.289 15.33-34.289 34.245 0 1.662.168 3.286.399 4.893h219.687zM.158 98.333C.084 97.818 0 97.301 0 96.76c0-6.07 4.931-11 11.014-11 1.199 0 2.338.24 3.416.594C16.052 75.355 25.513 66.9 36.978 66.9c1.684 0 3.318.198 4.895.54 5.113-5.624 12.466-9.181 20.672-9.181 13.115 0 24.092 9.043 27.092 21.215h.054c9.124 0 16.522 7.39 16.522 16.502 0 .803-.081 1.586-.192 2.357H.158z" fill="url(#a)" transform="translate(0 5.515)"/><path d="M122.43 91.498c-.921-25.028-21.591-45.107-46.87-45.107-25.865 0-46.907 21.016-46.907 46.848h9.068c0-20.839 16.974-37.792 37.839-37.792 20.278 0 36.88 16.018 37.796 36.05h-4.486l4.53 5.835 4.531 5.835 4.53-5.835 4.53-5.834h-4.562z" fill="#818181"/><path d="M222.97 44.68c.08-.567.174-1.134.174-1.728 0-6.663-5.41-12.07-12.086-12.07-1.316 0-2.565.264-3.748.654-1.78-12.071-12.16-21.346-24.74-21.346a25.07 25.07 0 0 0-5.372.594C171.588 4.611 163.521.707 154.518.707c-14.393 0-26.435 9.923-29.728 23.28h-.057c-10.014 0-18.13 8.106-18.13 18.106 0 .88.09 1.738.21 2.588H222.97z" fill="url(#a)" transform="translate(0 5.515)"/><path fill="#4AA7DE" d="M178.776 23.908v4.094h4.929l-13.56 13.657-25.388-20.813-18.046 18.543 2.71 3.144 15.755-16.05 25.253 20.704 16.25-16.367v5.075h4.099V23.908z"/><path d="M128.05 45.597c0 2.2-1.785 3.986-3.99 3.986a3.988 3.988 0 0 1-3.99-3.986c0-2.2 1.787-3.984 3.99-3.984a3.987 3.987 0 0 1 3.99 3.984zm-1.965-12.8h-3.598l-.267 3.193a9.738 9.738 0 0 0-3.267 1.26l-2.524-2.132-2.544 2.54 2.073 2.445a9.728 9.728 0 0 0-1.416 3.198l-3.298.275v3.592l3.198.267a9.737 9.737 0 0 0 1.262 3.264l-2.137 2.52 2.545 2.54 2.448-2.069a9.746 9.746 0 0 0 3.202 1.414l.275 3.292 3.597.001.267-3.194a9.723 9.723 0 0 0 3.266-1.26l2.525 2.135 2.543-2.54-2.072-2.448a9.689 9.689 0 0 0 1.417-3.197l3.296-.275v-3.592l-3.198-.267a9.717 9.717 0 0 0-1.26-3.262l2.135-2.52-2.543-2.542-2.45 2.07a9.743 9.743 0 0 0-3.2-1.416l-.275-3.292z" fill="#969696"/><path d="M13.312 86.089c-4.979-6.49-7.13-14.53-6.057-22.637.98-7.398 4.551-14.059 10.12-18.947l5.381 7.014c-8.114 7.552-9.308 20.269-2.445 29.214 6.864 8.944 19.468 11.099 28.88 5.236l5.38 7.013c-6.175 4.1-13.542 5.813-20.95 4.835-8.115-1.073-15.33-5.238-20.309-11.728" fill="#818181"/><path d="M20.358 42.19a30.425 30.425 0 0 1 19.16-5.274l-1.16 8.761a21.675 21.675 0 0 0-12.627 3.514l-5.373-7.002z" fill="#4AA7DE"/><path d="M52.215 83.705c8.41-7.52 9.732-20.406 2.754-29.501-3.219-4.197-7.735-7.02-12.86-8.077l1.156-8.744c7.46 1.382 14.057 5.412 18.703 11.464C71.905 61.8 69.853 80.22 57.59 90.71l-5.374-7.005z" fill="#F8C44F"/><path d="M449.244 98.682c.107-.76.233-1.522.233-2.317 0-8.935-7.255-16.185-16.207-16.185-1.765 0-3.44.353-5.027.875-2.387-16.185-16.306-28.624-33.175-28.624-2.476 0-4.884.288-7.203.796-7.524-8.277-18.343-13.512-30.416-13.512-19.298 0-35.448 13.307-39.862 31.218h-.078c-13.429 0-24.312 10.87-24.312 24.28 0 1.178.119 2.33.282 3.47h155.765z" fill="url(#a)" transform="translate(0 5.515)"/><path d="M102.03 160.28a37.467 37.467 0 0 1-.273-4.338c0-20.228 16.413-36.633 36.675-36.633 3.434 0 6.756.505 9.914 1.39 3.594-26.192 26.073-46.389 53.301-46.389 29.728 0 53.825 24.072 53.825 53.744 0 .123-.006.24-.006.358 16.365 1.865 29.086 15.731 29.086 32.58 0 18.117-14.703 32.806-32.844 32.806H103.986c-.004-.023-.016-.044-.023-.073-.473.04-.941.073-1.419.073-9.274 0-16.791-7.509-16.791-16.775 0-9.088 7.243-16.475 16.277-16.743" fill="#FFF"/><g transform="translate(78.571 132.137)"><mask id="c" fill="#fff"><use xlink:href="#b"/></mask><path d="M33.757 64.495a2.09 2.09 0 0 1-2.091 2.09H2.374a2.091 2.091 0 0 1-2.092-2.09V2.851A2.09 2.09 0 0 1 2.374.76h29.292a2.09 2.09 0 0 1 2.091 2.09v61.644z" fill="#136FB7" mask="url(#c)"/></g><path fill="#F9C44F" d="M81.462 190.992h28.257V140.63H81.462z"/><path d="M90 137.567h11.183m-6.957 56.389h2.731" stroke="#282D33" stroke-width="1.756"/><g transform="translate(85.714 140.064)"><mask id="e" fill="#fff"><use xlink:href="#d"/></mask><path d="M16.315 20.216a37.467 37.467 0 0 1-.273-4.338c0-20.228 16.414-36.633 36.676-36.633 3.434 0 6.756.505 9.914 1.39 3.594-26.192 26.072-46.389 53.3-46.389 29.729 0 53.825 24.071 53.825 53.744 0 .123-.005.24-.005.357 16.365 1.866 29.086 15.732 29.086 32.58 0 18.118-14.704 32.807-32.844 32.807H18.272c-.004-.023-.016-.044-.023-.073-.473.04-.942.073-1.42.073-9.273 0-16.79-7.509-16.79-16.775 0-9.088 7.243-16.475 16.276-16.743" fill="#FFF" mask="url(#e)"/></g><path fill="#2E95D1" d="M174.74 193.305h33.717v-4.345H174.74z"/><path d="M123.111 189.453v-87.146a4.702 4.702 0 0 1 4.698-4.695h128.193c2.596 0 4.7 2.103 4.7 4.695v87.146" fill="#021E4C"/><path fill="#F9C44F" d="M130.223 181.356h123.368V104.8H130.223z"/><path d="M281.2 194.119v-5.097h-75.196c-.706 2.438-2.934 2.388-5.605 2.388h-16.987c-2.67 0-4.9.05-5.605-2.388h-75.195v5.097s6.172 4.604 10.71 4.604H270.49c4.535 0 10.71-4.604 10.71-4.604" fill="#06497D"/><path fill="#4AA7DE" d="M181.445 5.24h-23.21v13.834h3.676v4.347l4.808-4.347h14.726z"/><path d="M162.769 10.502h14.141m-14.141 3.559h14.141" stroke="#FFF" stroke-width="1.756"/><path fill="#F9C44F" d="M125.856 4.792h20.68v9.285h-3.677v4.346l-4.81-4.346h-12.193z"/><path d="M143.013 9.55h-14.142" stroke="#FFF" stroke-width="1.756"/><g transform="translate(130.159 104.393)"><mask id="g" fill="#fff"><use xlink:href="#f"/></mask><path d="M-20.635 53.522a34.09 34.09 0 0 1-.248-3.947c0-18.404 14.933-33.33 33.369-33.33 3.124 0 6.147.46 9.02 1.265C24.776-6.32 45.228-24.697 70-24.697c27.048 0 48.972 21.901 48.972 48.899 0 .111-.005.217-.005.325 14.89 1.698 26.464 14.313 26.464 29.643 0 16.484-13.378 29.848-29.883 29.848H-18.855c-.004-.02-.014-.04-.02-.066-.431.036-.857.066-1.292.066-8.438 0-15.277-6.831-15.277-15.262 0-8.27 6.59-14.99 14.81-15.234" fill="#FFF" mask="url(#g)"/></g><path d="M228.646 198.723a2.15 2.15 0 0 1-2.154-2.149V149.64c0-1.188.966-2.15 2.154-2.15h78.233c1.19 0 2.15.962 2.15 2.15v46.935a2.148 2.148 0 0 1-2.15 2.149h-78.233z" fill="#136FB7"/><path fill="#F9C44F" d="M234.456 194.513h66.611v-42.812h-66.61z"/><path d="M304.222 167.36v11.493m-72.818-7.15v2.807" stroke="#282D33" stroke-width="1.756"/><g transform="translate(234.127 151.162)"><mask id="i" fill="#fff"><use xlink:href="#h"/></mask><path d="M-132.097 9.118a37.467 37.467 0 0 1-.273-4.337c0-20.228 16.413-36.633 36.675-36.633 3.434 0 6.756.504 9.914 1.39 3.594-26.193 26.073-46.39 53.301-46.39 29.728 0 53.825 24.072 53.825 53.744 0 .123-.006.24-.006.358C37.704-20.884 50.425-7.018 50.425 9.83c0 18.118-14.703 32.806-32.844 32.806H-130.14c-.004-.022-.016-.044-.023-.073-.473.04-.941.073-1.419.073-9.274 0-16.791-7.508-16.791-16.775 0-9.088 7.243-16.474 16.277-16.743" fill="#FFF" mask="url(#i)"/></g><path d="M261.729 69.964h46.205c0-.042.008-.083.008-.126 0-5.122-4.159-9.278-9.292-9.278-.87 0-1.71.127-2.51.351-.911-6.633-6.605-11.75-13.5-11.75-7.532 0-13.636 6.098-13.636 13.615 0 .03.004.058.004.09a8.31 8.31 0 0 0-7.279 7.098z" fill="url(#a)" transform="translate(7 20.515)"/><path fill="#DCFFFF" d="M46.513 60.195H26.907v38.9H52.87v-32.55z"/><path fill="#136FB7" d="M46.51 66.808h6.623l-6.622-6.616z"/><path d="M31.908 69.124h7.209m-7.34 3.858h17.119m-17.119 3.857h17.119m-17.119 3.858H44.85" stroke="#282D33" stroke-width="1.756"/><path fill="#4AA7DE" d="M42.546 98.128h5.294V82.889h-5.294z"/><path fill="#FFF" d="M55.305 98.128V87.89H50.01v10.238"/><path stroke="#282D33" stroke-width="1.756" d="M55.305 98.128V87.89H50.01v10.238"/><path fill="#136FB7" d="M57.476 98.128h5.295V78.71h-5.295z"/><path fill="#FFF" d="M40.374 98.128V94.29H35.08v3.837"/><path stroke="#282D33" stroke-width="1.756" d="M40.374 98.128V94.29H35.08v3.837"/><path d="M29.53 98.412h38.877" fill="#FFF"/><path d="M29.53 98.412h38.877m114.123 39.436v-6.031c0-4.719 3.842-8.558 8.564-8.558h2.666c4.721 0 8.565 3.84 8.565 8.558v6.03" stroke="#282D33" stroke-width="1.756"/><path fill="#F9C44F" d="M179.294 161.85h26.268v-24.334h-26.268z"/><path d="M194.851 146.276a2.423 2.423 0 0 0-4.846 0c0 .882.475 1.65 1.18 2.073l-.549 5.961h3.583l-.549-5.96a2.413 2.413 0 0 0 1.181-2.074" fill="#282D33"/><path d="M178.108 143.94h5.108" fill="#FFF"/><path d="M178.108 143.94h5.108" stroke="#282D33" stroke-width="1.756"/><path d="M178.108 148.891h5.108" fill="#FFF"/><path d="M178.108 148.891h5.108" stroke="#282D33" stroke-width="1.756"/><path d="M178.108 153.843h5.108" fill="#FFF"/><path d="M178.108 153.843h5.108" stroke="#282D33" stroke-width="1.756"/><path d="M201.64 143.94h5.108" fill="#FFF"/><path d="M201.64 143.94h5.108" stroke="#282D33" stroke-width="1.756"/><path d="M201.64 148.891h5.108" fill="#FFF"/><path d="M201.64 148.891h5.108" stroke="#282D33" stroke-width="1.756"/><path d="M201.64 153.843h5.108" fill="#FFF"/><path d="M201.64 153.843h5.108m134.119-77.02a3.128 3.128 0 0 1-3.13 3.125 3.129 3.129 0 0 1-3.132-3.125 3.13 3.13 0 0 1 3.131-3.127c1.728 0 3.13 1.4 3.13 3.127zm9.555-3.197a3.127 3.127 0 0 1-3.13 3.126 3.127 3.127 0 0 1-3.13-3.126 3.129 3.129 0 0 1 3.13-3.126c1.729 0 3.13 1.4 3.13 3.126z" stroke="#282D33" stroke-width="1.756"/><path stroke="#282D33" stroke-width="1.756" d="M340.852 77.168V64.663l9.567-3.477V73.69m-7.175-6.903l9.566-3.478"/><path d="M163.962 51.538v-2.24" fill="#FFF"/><path d="M163.962 51.538v-2.24" stroke="#282D33" stroke-width="1.756"/><path d="M169.08 51.538v-2.24" fill="#FFF"/><path d="M169.08 51.538v-2.24" stroke="#282D33" stroke-width="1.756"/><path d="M174.196 51.538v-2.24" fill="#FFF"/><path d="M174.196 51.538v-2.24" stroke="#282D33" stroke-width="1.756"/><path d="M179.313 51.538v-2.24" fill="#FFF"/><path d="M179.313 51.538v-2.24" stroke="#282D33" stroke-width="1.756"/><path d="M184.429 51.538v-2.24" fill="#FFF"/><path d="M184.429 51.538v-2.24" stroke="#282D33" stroke-width="1.756"/><path d="M189.545 51.538v-2.24" fill="#FFF"/><path d="M189.545 51.538v-2.24" stroke="#282D33" stroke-width="1.756"/><path d="M194.662 51.538v-2.24" fill="#FFF"/><path d="M194.662 51.538v-2.24" stroke="#282D33" stroke-width="1.756"/><path fill="#5EB4E7" d="M355.054 95.46h40.17V65.565h-40.17z"/><path fill="#FBFBFB" d="M358.557 69.064v13.399l6.134-8.154 6.022 8.01 3.896-5.182 4.96 6.596 1.088 1.448h11.063V69.064z"/><path d="M386.758 75.201a2.834 2.834 0 0 1-2.835 2.832 2.834 2.834 0 0 1-2.836-2.832 2.836 2.836 0 0 1 5.671 0" fill="#5EB4E7"/><path fill="#F9C44F" d="M346.542 95.46h22.559V80.914h-22.559z"/><path stroke="#282D33" stroke-width="1.756" d="M346.514 81.6l11.308 8.156 11.307-8.156m43.093 15.024c0 6.346-5.151 11.491-11.505 11.491-6.354 0-11.506-5.145-11.506-11.491 0-6.347 5.152-11.493 11.506-11.493s11.505 5.146 11.505 11.493z"/><path fill="#FFF" d="M405.835 96.624l-3.961 2.284-3.963 2.285v-9.138l3.963 2.284z"/><path fill="#4AA7DE" d="M130.204 33.367h30.178v-6.44h-30.178z"/><path stroke="#282D33" stroke-width="1.756" d="M131.043 33.378v18.16h28.5v-18.16m-23.596-8.976v5.593m18.693-5.593v5.593m-19.221 7.427h1.606m1.418 0h1.606m1.417 0h1.606m1.418 0h1.606m1.417 0h1.607m1.417 0h1.606m1.417 0h1.608m-19.749 3.106h1.606m1.418 0h1.606m1.417 0h1.606m1.418 0h1.606m1.417 0h1.607m1.417 0h1.606m1.417 0h1.608m-19.749 3.107h1.606m1.418 0h1.606m1.417 0h1.606m1.418 0h1.606m1.417 0h1.607m1.417 0h1.606m1.417 0h1.608m-19.749 3.105h1.606m1.418 0h1.606m1.417 0h1.606m1.418 0h1.606m1.417 0h1.607m1.417 0h1.606m1.417 0h1.608"/><path fill="#4AA7DE" d="M145.176 26.484l25.252 20.703 16.251-16.368v5.076h4.098V23.908h-12.001v4.093h4.928l-13.56 13.658-25.386-20.813"/><path stroke="#282D33" stroke-width="1.756" d="M364.99 99.255h15.949v-9.733h-15.95z"/><path stroke="#282D33" stroke-width="1.756" d="M365.364 89.43l7.6 6.482 7.6-6.482m-9.704 4.854l-5.496 4.687m15.201 0l-5.549-4.731"/><path d="M56.01 169.8c-9.323 0-18.454-2.684-26.456-7.876-10.917-7.083-18.418-17.989-21.121-30.708-2.704-12.719-.288-25.728 6.805-36.63l1.473.955c-6.837 10.51-9.167 23.05-6.561 35.31 2.606 12.261 9.837 22.774 20.361 29.602 10.523 6.83 23.079 9.156 35.353 6.553 12.276-2.604 22.802-9.824 29.64-20.335l1.471.956c-7.092 10.903-18.01 18.394-30.746 21.095a49.32 49.32 0 0 1-10.22 1.078" fill="#686868"/><path stroke="#686868" stroke-width="1.756" d="M17.353 101.157l-.892-6.286-6.294.89"/></g></svg>