<svg width="458" height="210" viewBox="0 0 458 210" xmlns="http://www.w3.org/2000/svg" xmlns:xlink="http://www.w3.org/1999/xlink"><title>img_1_Data_Protection</title><defs><path id="a" d="M0 0h458v210H0z"/></defs><g fill="none" fill-rule="evenodd"><mask id="b" fill="#fff"><use xlink:href="#a"/></mask><use fill="#FFF" xlink:href="#a"/><g mask="url(#b)"><path d="M457.267 170.2c0 17.51-100.571 31.704-224.633 31.704C108.572 201.904 8 187.711 8 170.2c0-17.51 100.572-31.703 224.634-31.703 124.062 0 224.633 14.193 224.633 31.703z"/><path fill="#E6E6E6" d="M266.713 169.345l-45.722-45.648 5.93-5.921 39.792 39.725 40.497-40.43 18.87 18.84 44.424-44.35 29.382 29.331 35.969-35.91 5.932 5.921-41.901 41.833-29.382-29.332-44.424 44.35-18.87-18.84z"/><path stroke="#E6E6E6" stroke-width="8.388" d="M441.968 105.946V84.802h-21.18"/><path d="M68.64 134.46c-9.144-8.152-14.561-19.375-15.254-31.596-.634-11.154 2.753-21.949 9.578-30.693l9.881 8.81c-9.82 13.375-8.01 32.409 4.592 43.646 12.607 11.235 31.755 10.879 43.958-.372l9.882 8.808c-7.936 7.757-18.295 12.335-29.468 12.966-12.24.691-24.02-3.417-33.169-11.57" fill="#4AA7DE"/><path d="M66.704 67.93c7.226-7.257 16.541-11.827 26.71-13.108l.749 13.206a32.456 32.456 0 0 0-17.592 8.697l-9.867-8.795z" fill="#CFEBF9"/><path d="M125.208 120.079c10.268-13.41 8.602-32.726-4.216-44.152-5.914-5.274-13.348-8.16-21.184-8.286l-.748-13.179c11.362-.056 22.196 4.027 30.727 11.63 18.251 16.27 20.397 43.934 5.291 62.788l-9.87-8.801z" stroke="#282D33" stroke-width="1.798"/><path d="M354.777 109.67V99.588a5.51 5.51 0 0 0-4.88-5.473c-1.502 0-48.946.011-51.4 0a5.514 5.514 0 0 1 4.88 5.473v68.372h.018l-.018.921c0 2.829 2.149 5.156 4.896 5.473 1.505 0 48.949-.01 51.404 0a5.513 5.513 0 0 1-4.882-5.473v-1.256h-.018v-63.46" fill="#DCFFFF"/><path d="M303.377 105.586v-5.998a5.516 5.516 0 0 0-5.522-5.512 5.514 5.514 0 0 0-5.522 5.512v5.998h11.044zm10.197 60.526v2.77a5.514 5.514 0 0 1-4.882 5.473c2.453-.01 49.9 0 51.402 0a5.511 5.511 0 0 0 4.878-5.473v-2.77h-51.398z" fill="#2E95D1"/><path d="M328.094 135.73v-13.608m-5.812 13.504v-8.527m-5.811 8.631v-4.586m11.623 9.478v-2.551m-5.812 2.551v-2.551m-5.811 2.551v-2.551m29.057-2.341V118.4m-5.811 17.33v-4.505m-5.812 4.505v-8.505m11.623 13.397v-2.551m-5.811 2.551v-2.551m-5.812 2.551v-2.551m29.059-2.341v-13.608m-5.812 13.423v-9.439m-5.812 9.624v-14.07m11.624 18.962v-2.551m-5.812 2.551v-2.551m-5.812 2.551v-2.551m-41.352-33.648h12.858m-13.092 5.575h30.535" stroke="#282D33" stroke-width="1.798"/><path d="M121.522 117.656h-17.351v52.056a4.647 4.647 0 0 0 4.652 4.643 4.647 4.647 0 0 0 4.65-4.643v-29.578h1.968v-13.19h6.081a4.65 4.65 0 0 0 4.65-4.646 4.648 4.648 0 0 0-4.65-4.642" fill="#F8991C"/><path fill="#DCFFFF" d="M127.174 75.405h27.967v55.46h-37.034V84.46z"/><path fill="#4AA7DE" d="M127.179 84.834h-9.445l9.445-9.433z"/><path d="M124.457 91.725h10.28m-10.467 4.457h24.418m-24.418 4.458h24.418m-24.418 4.458h24.418m-24.418 4.458h15.8" stroke="#282D33" stroke-width="1.798"/><path d="M135.207 126.562a4.65 4.65 0 0 0-4.563-3.751h-17.171v46.9a4.646 4.646 0 0 1-4.65 4.644h57.2a4.646 4.646 0 0 0 4.652-4.643v-43.15h-35.468z" fill="#F9C44F"/><path d="M328.466 63.421l21.562 6.995c-2.057 4.045-5.03 7.56-8.852 10.47l-12.71-17.465zm-5.336-7.658v-37.16c3.848.067 7.148.629 10.88 1.838 9.607 3.114 17.423 9.781 22.012 18.768 4.464 8.747 5.345 18.673 2.51 28.042L323.13 55.763z" fill="#4AA7DE"/><path d="M322.316 87.258c-8.267 0-16.041-3.213-21.884-9.047-12.075-12.055-12.075-31.67.002-43.726 4.875-4.87 10.607-7.808 17.051-8.749V57.96l1.747 2.36 17.156 23.573a31.103 31.103 0 0 1-14.07 3.365h-.002z" fill="#DCFFFF"/><path fill="#136FB7" d="M211.157 168.124h38.794v-4.996h-38.794z"/><path d="M151.754 163.696V63.47c0-2.98 2.429-5.398 5.406-5.398h147.493a5.405 5.405 0 0 1 5.41 5.398v100.225" fill="#021E4C"/><path fill="#4AA7DE" d="M159.938 154.382H301.88V66.339H159.938z"/><path d="M333.645 169.06v-5.86h-86.517c-.813 2.803-3.375 2.746-6.447 2.746h-19.546c-3.073 0-5.639.057-6.449-2.746h-86.518v5.861s7.102 5.295 12.323 5.295h180.831c5.219 0 12.323-5.295 12.323-5.295" fill="#06497D"/><path d="M224.153 90.255v-4.113c0-3.219 2.622-5.838 5.843-5.838h1.82c3.221 0 5.845 2.619 5.845 5.838v3.816" stroke="#282D33" stroke-width="1.798"/><path stroke="#282D33" stroke-width="1.798" d="M221.946 104.831h17.923V90.028h-17.923zm-.81-11.02h3.485m-3.485 3.377h3.485m-3.485 3.378h3.485m12.572-6.755h3.484m-3.484 3.377h3.484m-3.484 3.378h3.484m-9.77-5.192v3.79"/><path fill="#F9C44F" d="M297.96 174.954h44.243V146.44h-44.244z"/><path stroke="#282D33" stroke-width="1.798" d="M297.904 147.782l22.177 15.989 22.176-15.99"/><path fill="#06497D" d="M176.682 133.418h106.054V116.07H176.682z"/><path fill="#FFF" d="M177.28 134.615h106.054v-17.348H177.28z"/><path d="M181.22 125.94h8.524m-6.394 3.685l4.264-7.37m0 7.37l-4.263-7.37m10.015 3.685h8.525m-6.393 3.685l4.263-7.37m-.001 7.37l-4.262-7.37m10.015 3.685h8.525m-6.393 3.685l4.262-7.37m0 7.37l-4.262-7.37m10.017 3.685h8.523m-6.393 3.685l4.262-7.37m0 7.37l-4.262-7.37m10.016 3.685h8.524m-6.392 3.685l4.26-7.37m0 7.37l-4.26-7.37" stroke="#282D33" stroke-width="1.798"/><path fill="#5EB4E7" d="M56.592 148.11h43.606v-9.302H56.592z"/><path stroke="#282D33" stroke-width="1.798" d="M57.803 148.124v26.23h41.184v-26.23M64.89 135.16v8.078m27.011-8.078v8.078m-27.773 10.728h2.321m2.047 0h2.321m2.048 0h2.321m2.048 0h2.322m2.047 0h2.322m2.047 0h2.321m2.049 0h2.321m-28.535 4.486h2.321m2.047 0h2.321m2.048 0h2.321m2.048 0h2.322m2.047 0h2.322m2.047 0h2.321m2.049 0h2.321m-28.535 4.487h2.321m2.047 0h2.321m2.048 0h2.321m2.048 0h2.322m2.047 0h2.322m2.047 0h2.321m2.049 0h2.321m-28.535 4.486h2.321m2.047 0h2.321m2.048 0h2.321m2.048 0h2.322m2.047 0h2.322m2.047 0h2.321m2.049 0h2.321"/><path d="M414.978 159.206a11.362 11.362 0 0 1-7.546-2.837l7.927-7.916h11.042a11.322 11.322 0 0 1-3.329 7.407 11.38 11.38 0 0 1-8.094 3.346" fill="#FFD13D"/><path d="M415.725 146.717V136.38a11.355 11.355 0 0 1 10.645 10.338h-10.645z" fill="#2E95D1"/><path d="M414.978 159.206a11.362 11.362 0 0 1-7.546-2.837l7.927-7.916h11.042a11.322 11.322 0 0 1-3.329 7.407 11.38 11.38 0 0 1-8.094 3.346" fill="#FFF"/><path d="M415.6 134c7.328.348 13.162 6.388 13.162 13.789 0 7.624-6.19 13.805-13.828 13.805a13.782 13.782 0 0 1-9.177-3.479" stroke="#282D33" stroke-width="1.798"/><path d="M413.912 133.312c-7.553.525-13.52 6.803-13.52 14.477 0 3.691 1.385 7.06 3.658 9.62l9.862-10.05v-14.047zm-1.798 2.073v11.243l-7.895 8.044a12.685 12.685 0 0 1-2.029-6.883c0-5.996 4.227-11.114 9.924-12.404z" fill="#282D33"/><path d="M384.046 146.029v-10.337a11.355 11.355 0 0 1 10.645 10.337h-10.645z" fill="#FFF"/><path d="M383.922 133.312c7.327.347 13.16 6.388 13.16 13.79a13.76 13.76 0 0 1-4.545 10.232" stroke="#282D33" stroke-width="1.798"/><path d="M381.433 147.535V133.41c-6.732.93-11.917 6.695-11.917 13.673 0 7.626 6.192 13.809 13.83 13.809 2.52 0 4.88-.673 6.915-1.849l-8.828-11.508z" stroke="#282D33" stroke-width="1.798" stroke-linecap="square"/><path d="M385.21 147.766a8300.97 8300.97 0 0 1 5.934 7.637c.082-.076.169-.15.249-.23 2.001-2 3.17-4.606 3.33-7.407h-9.513z" fill="#F9C44F"/><path d="M355.88 82.247c0 5.618-10.185 21.013-10.185 21.013S335.51 87.865 335.51 82.247c0-5.614 4.558-10.167 10.184-10.167 5.624 0 10.185 4.553 10.185 10.167z" stroke="#282D33" stroke-width="1.798" fill="#FFF"/><path d="M348.707 82.81c0 1.663-1.35 3.01-3.013 3.01a3.01 3.01 0 0 1-3.012-3.01 3.01 3.01 0 0 1 3.012-3.006 3.012 3.012 0 0 1 3.013 3.007" fill="#282D33"/><path d="M88.977 110.86h13.653c.096-1.29.384-2.967 1.196-4.047 5.037-6.476 5.36-12.644 5.36-13.08 0-7.376-5.984-13.35-13.371-13.35-7.388 0-13.373 5.974-13.373 13.35 0 .436.314 6.601 5.357 13.08.81 1.08 1.091 2.758 1.178 4.046" fill="#FFE500"/><path d="M92.26 110.822l-2.65-14.673m9.761 14.675l2.646-14.675m-12.324.844l2.037 1.196 2.04-1.196 2.038 1.196 2.04-1.196 2.044 1.196 2.043-1.196m-13.841 14.023h15.443m-15.443 4.057h15.443m-12.773 4.057h10.101m-8.985-4.393v-3.542" stroke="#282D33" stroke-width="1.798" stroke-linejoin="bevel"/><path fill="#5EB4E7" d="M41.31 175.553h29.73v-22.116H41.31z"/><path fill="#FFF" d="M43.903 156.026v9.911l4.54-6.03 4.457 5.924 2.882-3.833 3.671 4.88.806 1.07h8.187v-11.922z"/><path d="M64.774 160.566c0 1.157-.94 2.094-2.099 2.094a2.097 2.097 0 1 1 0-4.19c1.159 0 2.099.94 2.099 2.096m211.04-130.258c0 .797-.653 1.449-1.45 1.449h-48.116a1.454 1.454 0 0 1-1.449-1.449V18.474l-1.996-2.264 1.996-2.625v-1.9c0-.798.654-1.45 1.45-1.45h48.114c.798 0 1.45.652 1.45 1.45v18.623z" fill="#5EB4E7"/><path d="M229.345 16.136h14.98" fill="#FFF"/><path d="M229.345 16.136h14.98" stroke="#FFF" stroke-width="2.397"/><path d="M246.721 16.136h14.38" fill="#FFF"/><path d="M246.721 16.136h14.38" stroke="#FFF" stroke-width="2.397"/><path d="M255.56 16.136h12.581" fill="#FFF"/><path d="M255.56 16.136h12.581" stroke="#FFF" stroke-width="2.397"/><path d="M229.345 20.772h6.442" fill="#FFF"/><path d="M229.345 20.772h6.442" stroke="#FFF" stroke-width="2.397"/><path d="M238.483 20.772h22.019" fill="#FFF"/><path d="M238.483 20.772h22.019" stroke="#FFF" stroke-width="2.397"/><path d="M262.9 20.772h7.49" fill="#FFF"/><path d="M262.9 20.772h7.49" stroke="#FFF" stroke-width="2.397"/><path d="M229.345 25.408h14.98" fill="#FFF"/><path d="M229.345 25.408h14.98" stroke="#FFF" stroke-width="2.397"/><path d="M246.721 25.408h10.036" fill="#FFF"/><path d="M246.721 25.408h10.036" stroke="#FFF" stroke-width="2.397"/><path d="M251.353 47.812c0 .797.651 1.45 1.45 1.45h47.824c.798 0 1.45-.653 1.45-1.45V45.55l1.995-2.261-1.994-2.625v-1.901c0-.797-.653-1.45-1.451-1.45h-47.824c-.799 0-1.45.653-1.45 1.45v9.05z" fill="#4AA7DE"/><path d="M255.632 43.205h13.781" fill="#FFF"/><path d="M255.632 43.205h13.781" stroke="#FFF" stroke-width="2.397"/><path d="M272.41 43.205h17.525" fill="#FFF"/><path d="M272.41 43.205h17.525" stroke="#FFF" stroke-width="2.397"/><path d="M292.531 43.205h4.145" fill="#FFF"/><path d="M292.531 43.205h4.145" stroke="#FFF" stroke-width="2.397"/><path d="M321.854 42.922c0 3.703-3.007 6.706-6.718 6.706-3.71 0-6.719-3.003-6.719-6.706 0-3.704 3.008-6.707 6.719-6.707 3.711 0 6.718 3.003 6.718 6.707" fill="#4AA7DE"/><path d="M317.495 42.137c0 1.3-1.056 2.355-2.359 2.355a2.358 2.358 0 0 1-2.36-2.355 2.358 2.358 0 0 1 2.36-2.357 2.358 2.358 0 0 1 2.36 2.357zm-.59 2.617h-3.538a2.36 2.36 0 0 0-2.362 2.356v.192a6.01 6.01 0 0 0 4.13 1.64 6.008 6.008 0 0 0 4.131-1.64v-.192a2.36 2.36 0 0 0-2.361-2.356zM54.555 117.27a10.934 10.934 0 0 1-6.61 2.213c-6.057 0-10.966-4.902-10.966-10.949 0-6.046 4.91-10.948 10.966-10.948a10.95 10.95 0 0 1 8.484 4.012" stroke="#282D33" stroke-width="1.798"/><path d="M51.402 103.425s-4.504-1.025-7.113 1.42c-3.138 2.944-2.46 7.522.474 8.365 2.886.828 3.99-1.383 4.327-2.35.337-.965 2.312-7.435 2.312-7.435zm-.315 1.105s-1.93 6.756-.594 7.97c3.913 3.55 12.923-5.683 4.149-12.666" stroke="#282D33" stroke-width="1.798"/><path d="M141.233 53.993c.147-.371-.137-1.115-.361-1.215-1.559-.706-2.745-1.064-4.568-1.469-.232-.052-.887.059-1.017.26-.324.507-.644 1.017-.969 1.525-.293.474-1.095.512-1.756.026a21.89 21.89 0 0 1-2.475-2.103 22.376 22.376 0 0 1-2.117-2.475c-.483-.662-.445-1.464.03-1.758.509-.32 1.018-.642 1.526-.967.202-.127.323-.783.263-1.014-.391-1.48-.93-3.059-1.473-4.561-.084-.231-.844-.505-1.217-.36a9.656 9.656 0 0 0-3.356 2.18c-.275.278-.53.57-.768.87-.084 3.517 1.489 7.43 4.595 10.533a.866.866 0 0 0 .026.022l.033.038c3.106 3.099 7.026 4.669 10.549 4.585a9.51 9.51 0 0 0 3.055-4.117" fill="#4AA7DE"/><path d="M141.426 40.886l-2.329 2.324m-3.566-6.426l-1.391 2.98m11.42 6.99l-2.986 1.389m-1.148-7.257l-2.33 2.325M22.023 128.274h5.125m39.247 0H32.209m37.446 0h3.424m-40.155 0a2.592 2.592 0 0 1-2.593 2.589 2.592 2.592 0 0 1-2.594-2.589c0-1.43 1.161-2.59 2.594-2.59a2.592 2.592 0 0 1 2.593 2.59z" stroke="#282D33" stroke-width="1.798"/></g></g></svg>